<?xml version="1.0" encoding="UTF-8" standalone="no"?>
<!DOCTYPE svg PUBLIC "-//W3C//DTD SVG 1.1//EN"
 "http://www.w3.org/Graphics/SVG/1.1/DTD/svg11.dtd">
<!-- Generated by graphviz version 9.0.0 (20230911.1827)
 -->
<!-- Title: G Pages: 1 -->
<svg width="616pt" height="130pt"
 viewBox="0.00 0.00 616.45 129.95" xmlns="http://www.w3.org/2000/svg" xmlns:xlink="http://www.w3.org/1999/xlink">
<g id="graph0" class="graph" transform="scale(1 1) rotate(0) translate(21.6 108.35)">
<title>G</title>
<polygon fill="#111111" stroke="none" points="-21.6,21.6 -21.6,-108.35 594.85,-108.35 594.85,21.6 -21.6,21.6"/>
<!-- _app.tsx -->
<g id="node1" class="node">
<title>_app.tsx</title>
<path fill="none" stroke="#c6c5fe" d="M196.58,-65.75C196.58,-65.75 145.42,-65.75 145.42,-65.75 141.46,-65.75 137.5,-61.79 137.5,-57.83 137.5,-57.83 137.5,-49.92 137.5,-49.92 137.5,-45.96 141.46,-42 145.42,-42 145.42,-42 196.58,-42 196.58,-42 200.54,-42 204.5,-45.96 204.5,-49.92 204.5,-49.92 204.5,-57.83 204.5,-57.83 204.5,-61.79 200.54,-65.75 196.58,-65.75"/>
<text text-anchor="middle" x="171" y="-48.45" font-family="Arial" font-size="14.00" fill="#c6c5fe">_app.tsx</text>
</g>
<!-- assets/react.svg -->
<g id="node2" class="node">
<title>assets/react.svg</title>
<path fill="none" stroke="#cfffac" d="M399.71,-86.75C399.71,-86.75 302.04,-86.75 302.04,-86.75 298.08,-86.75 294.12,-82.79 294.12,-78.83 294.12,-78.83 294.12,-70.92 294.12,-70.92 294.12,-66.96 298.08,-63 302.04,-63 302.04,-63 399.71,-63 399.71,-63 403.67,-63 407.62,-66.96 407.62,-70.92 407.62,-70.92 407.62,-78.83 407.62,-78.83 407.62,-82.79 403.67,-86.75 399.71,-86.75"/>
<text text-anchor="middle" x="350.88" y="-69.45" font-family="Arial" font-size="14.00" fill="#cfffac">assets/react.svg</text>
</g>
<!-- _app.tsx&#45;&gt;assets/react.svg -->
<g id="edge1" class="edge">
<title>_app.tsx&#45;&gt;assets/react.svg</title>
<path fill="none" stroke="#757575" d="M204.63,-57.73C226.39,-60.3 255.8,-63.77 282.46,-66.92"/>
<polygon fill="#757575" stroke="#757575" points="281.84,-70.37 292.18,-68.06 282.66,-63.42 281.84,-70.37"/>
</g>
<!-- components/ui/button.tsx -->
<g id="node3" class="node">
<title>components/ui/button.tsx</title>
<path fill="none" stroke="#c6c5fe" d="M426.33,-44.75C426.33,-44.75 275.42,-44.75 275.42,-44.75 271.46,-44.75 267.5,-40.79 267.5,-36.83 267.5,-36.83 267.5,-28.92 267.5,-28.92 267.5,-24.96 271.46,-21 275.42,-21 275.42,-21 426.33,-21 426.33,-21 430.29,-21 434.25,-24.96 434.25,-28.92 434.25,-28.92 434.25,-36.83 434.25,-36.83 434.25,-40.79 430.29,-44.75 426.33,-44.75"/>
<text text-anchor="middle" x="350.88" y="-27.45" font-family="Arial" font-size="14.00" fill="#c6c5fe">components/ui/button.tsx</text>
</g>
<!-- _app.tsx&#45;&gt;components/ui/button.tsx -->
<g id="edge2" class="edge">
<title>_app.tsx&#45;&gt;components/ui/button.tsx</title>
<path fill="none" stroke="#757575" d="M204.63,-50.02C219.31,-48.29 237.48,-46.14 255.94,-43.97"/>
<polygon fill="#757575" stroke="#757575" points="256.1,-47.47 265.62,-42.82 255.28,-40.52 256.1,-47.47"/>
</g>
<!-- utils/tailwind.ts -->
<g id="node6" class="node">
<title>utils/tailwind.ts</title>
<path fill="none" stroke="#cfffac" d="M565.33,-44.75C565.33,-44.75 478.17,-44.75 478.17,-44.75 474.21,-44.75 470.25,-40.79 470.25,-36.83 470.25,-36.83 470.25,-28.92 470.25,-28.92 470.25,-24.96 474.21,-21 478.17,-21 478.17,-21 565.33,-21 565.33,-21 569.29,-21 573.25,-24.96 573.25,-28.92 573.25,-28.92 573.25,-36.83 573.25,-36.83 573.25,-40.79 569.29,-44.75 565.33,-44.75"/>
<text text-anchor="middle" x="521.75" y="-27.45" font-family="Arial" font-size="14.00" fill="#cfffac">utils/tailwind.ts</text>
</g>
<!-- components/ui/button.tsx&#45;&gt;utils/tailwind.ts -->
<g id="edge5" class="edge">
<title>components/ui/button.tsx&#45;&gt;utils/tailwind.ts</title>
<path fill="none" stroke="#757575" d="M434.33,-32.88C442.55,-32.88 450.78,-32.88 458.74,-32.88"/>
<polygon fill="#757575" stroke="#757575" points="458.63,-36.38 468.63,-32.88 458.63,-29.38 458.63,-36.38"/>
</g>
<!-- _main.tsx -->
<g id="node4" class="node">
<title>_main.tsx</title>
<path fill="none" stroke="#c6c5fe" d="M66.58,-44.75C66.58,-44.75 7.92,-44.75 7.92,-44.75 3.96,-44.75 0,-40.79 0,-36.83 0,-36.83 0,-28.92 0,-28.92 0,-24.96 3.96,-21 7.92,-21 7.92,-21 66.58,-21 66.58,-21 70.54,-21 74.5,-24.96 74.5,-28.92 74.5,-28.92 74.5,-36.83 74.5,-36.83 74.5,-40.79 70.54,-44.75 66.58,-44.75"/>
<text text-anchor="middle" x="37.25" y="-27.45" font-family="Arial" font-size="14.00" fill="#c6c5fe">_main.tsx</text>
</g>
<!-- _main.tsx&#45;&gt;_app.tsx -->
<g id="edge3" class="edge">
<title>_main.tsx&#45;&gt;_app.tsx</title>
<path fill="none" stroke="#757575" d="M74.95,-38.72C90.79,-41.25 109.44,-44.22 126.01,-46.86"/>
<polygon fill="#757575" stroke="#757575" points="125.17,-50.27 135.6,-48.39 126.27,-43.36 125.17,-50.27"/>
</g>
<!-- styles/globals.css -->
<g id="node5" class="node">
<title>styles/globals.css</title>
<path fill="none" stroke="#cfffac" d="M223.58,-23.75C223.58,-23.75 118.42,-23.75 118.42,-23.75 114.46,-23.75 110.5,-19.79 110.5,-15.83 110.5,-15.83 110.5,-7.92 110.5,-7.92 110.5,-3.96 114.46,0 118.42,0 118.42,0 223.58,0 223.58,0 227.54,0 231.5,-3.96 231.5,-7.92 231.5,-7.92 231.5,-15.83 231.5,-15.83 231.5,-19.79 227.54,-23.75 223.58,-23.75"/>
<text text-anchor="middle" x="171" y="-6.45" font-family="Arial" font-size="14.00" fill="#cfffac">styles/globals.css</text>
</g>
<!-- _main.tsx&#45;&gt;styles/globals.css -->
<g id="edge4" class="edge">
<title>_main.tsx&#45;&gt;styles/globals.css</title>
<path fill="none" stroke="#757575" d="M74.95,-27.03C82.44,-25.83 90.55,-24.54 98.78,-23.23"/>
<polygon fill="#757575" stroke="#757575" points="99.2,-26.7 108.52,-21.67 98.1,-19.79 99.2,-26.7"/>
</g>
</g>
</svg>
